<svg version="1.1" id="Layer_1" xmlns="http://www.w3.org/2000/svg" xmlns:xlink="http://www.w3.org/1999/xlink" x="0px" y="0px"
	 width="100%" viewBox="0 0 208 224" enable-background="new 0 0 208 224" xml:space="preserve">
<path fill="#000000" opacity="1.000000" stroke="none" 
	d="
M74.097366,200.090912 
	C37.063141,183.424026 15.034335,148.628494 17.913925,108.925110 
	C21.175047,63.961178 54.498440,31.165291 95.457077,24.924543 
	C144.979294,17.378992 191.058456,52.665306 198.462585,102.679794 
	C205.961517,153.334763 170.171082,200.210770 119.445946,206.419739 
	C103.833778,208.330750 88.922546,206.141434 74.097366,200.090912 
M103.766968,142.279861 
	C115.572197,129.477661 128.298843,117.508034 139.323959,103.596130 
	C132.160843,97.217308 125.272697,91.198174 118.529625,85.020683 
	C115.919571,82.629562 114.278198,83.766975 112.309303,85.839325 
	C105.309906,93.206474 98.373482,100.646690 91.094994,107.732361 
	C79.799583,118.728508 70.933815,131.105774 66.958603,146.624161 
	C66.094894,149.995895 64.573830,153.194550 63.504536,156.520813 
	C63.128242,157.691345 62.141323,158.936157 63.241364,160.323639 
	C65.315201,161.325836 67.109093,160.089142 68.892403,159.387451 
	C75.865334,156.643768 82.736778,153.634460 89.755043,151.016296 
	C94.831474,149.122528 99.498352,146.729218 103.766968,142.279861 
M141.920273,64.565826 
	C139.511734,63.132359 136.959183,60.944393 134.263321,63.414513 
	C130.409424,66.945686 126.922546,70.877396 122.938683,74.989243 
	C131.323486,81.519356 138.086304,88.758812 145.778473,95.738075 
	C149.338699,91.438362 152.508789,87.431732 155.880630,83.602783 
	C157.987747,81.209991 157.454437,79.319557 155.656464,77.060112 
	C151.894592,72.332703 147.401276,68.453117 141.920273,64.565826 
z"/>
<path fill="#000000" opacity="1.000000" stroke="none" 
	d="
M88.172211,143.078461 
	C87.770828,146.122345 86.159065,147.943939 83.571091,147.739502 
	C79.815964,147.442902 77.396019,144.836624 75.748802,141.596634 
	C74.649078,139.433533 74.209915,137.148071 75.903397,135.072723 
	C77.507980,133.106323 79.467270,132.850143 81.573784,134.369705 
	C84.554474,136.519867 87.374603,138.798294 88.172211,143.078461 
z"/>
</svg>